<svg xmlns="http://www.w3.org/2000/svg" width="480" height="360" viewBox="0 0 480 360" role="img" aria-labelledby="title desc">
  <title id="title">Gaming Laptop GL-1001</title>
  <desc id="desc">Synthetic gaming laptop illustration for demo product card.</desc>
  <defs>
    <linearGradient id="bg" x1="0" y1="0" x2="1" y2="1">
      <stop offset="0%" stop-color="#0b1220" />
      <stop offset="100%" stop-color="#1d4ed8" />
    </linearGradient>
    <linearGradient id="screen" x1="0" y1="0" x2="1" y2="1">
      <stop offset="0%" stop-color="#05070f" />
      <stop offset="100%" stop-color="#101828" />
    </linearGradient>
    <linearGradient id="glow" x1="0" y1="0" x2="1" y2="0">
      <stop offset="0%" stop-color="#1d4ed8" />
      <stop offset="100%" stop-color="#38bdf8" />
    </linearGradient>
  </defs>
  <rect x="0" y="0" width="480" height="360" fill="url(#bg)" />
  <rect x="68" y="62" width="344" height="206" rx="14" fill="#0b1020" stroke="#334155" stroke-width="3" />
  <rect x="86" y="78" width="308" height="166" rx="8" fill="url(#screen)" />
  <path d="M94 232 C152 186, 328 186, 386 232" fill="none" stroke="url(#glow)" stroke-width="4" opacity="0.9" />
  <path d="M76 270 L404 270 L436 302 L44 302 Z" fill="#1f2937" stroke="#475569" stroke-width="2" />
  <rect x="210" y="282" width="60" height="10" rx="4" fill="#334155" />
  <g stroke="#334155" stroke-width="1.5" opacity="0.8">
    <line x1="102" y1="278" x2="378" y2="278" />
    <line x1="102" y1="284" x2="378" y2="284" />
    <line x1="102" y1="290" x2="378" y2="290" />
  </g>
  <text x="240" y="112" text-anchor="middle" fill="#94a3b8" font-family="Arial, Helvetica, sans-serif" font-size="16" letter-spacing="2">GAMING LAPTOP</text>
  <text x="240" y="136" text-anchor="middle" fill="#e2e8f0" font-family="Arial, Helvetica, sans-serif" font-size="20" font-weight="700">GL-1001</text>
  <circle cx="240" cy="66" r="2.8" fill="#64748b" />
</svg>
